<mxfile host="65bd71144e">
    <diagram id="EUg1p4t70o_n1Fe6zQVJ" name="Page-1">
        <mxGraphModel dx="633" dy="858" grid="1" gridSize="10" guides="1" tooltips="1" connect="1" arrows="1" fold="1" page="1" pageScale="1" pageWidth="850" pageHeight="1100" math="0" shadow="0">
            <root>
                <mxCell id="0"/>
                <mxCell id="1" parent="0"/>
                <mxCell id="2" value="Array" style="text;strokeColor=none;align=center;fillColor=none;html=1;verticalAlign=middle;whiteSpace=wrap;rounded=0;" parent="1" vertex="1">
                    <mxGeometry x="90" y="260" width="60" height="30" as="geometry"/>
                </mxCell>
                <mxCell id="14" value="" style="whiteSpace=wrap;html=1;flipH=1;" parent="1" vertex="1">
                    <mxGeometry x="110" y="320" width="30" height="30" as="geometry"/>
                </mxCell>
                <mxCell id="33" value="" style="whiteSpace=wrap;html=1;flipH=1;" parent="1" vertex="1">
                    <mxGeometry x="160" y="320" width="30" height="30" as="geometry"/>
                </mxCell>
                <mxCell id="34" value="" style="whiteSpace=wrap;html=1;flipH=1;fillColor=#60a917;fontColor=#ffffff;strokeColor=#2D7600;" parent="1" vertex="1">
                    <mxGeometry x="210" y="320" width="30" height="30" as="geometry"/>
                </mxCell>
                <mxCell id="61" value="" style="edgeStyle=orthogonalEdgeStyle;html=1;" parent="1" source="35" target="60" edge="1">
                    <mxGeometry relative="1" as="geometry"/>
                </mxCell>
                <mxCell id="35" value="" style="whiteSpace=wrap;html=1;flipH=1;fillColor=#60a917;fontColor=#ffffff;strokeColor=#2D7600;" parent="1" vertex="1">
                    <mxGeometry x="260" y="320" width="30" height="30" as="geometry"/>
                </mxCell>
                <mxCell id="36" value="" style="whiteSpace=wrap;html=1;flipH=1;fillColor=#60a917;fontColor=#ffffff;strokeColor=#2D7600;" parent="1" vertex="1">
                    <mxGeometry x="310" y="320" width="30" height="30" as="geometry"/>
                </mxCell>
                <mxCell id="37" value="" style="whiteSpace=wrap;html=1;flipH=1;" parent="1" vertex="1">
                    <mxGeometry x="360" y="320" width="30" height="30" as="geometry"/>
                </mxCell>
                <mxCell id="38" value="" style="whiteSpace=wrap;html=1;flipH=1;" parent="1" vertex="1">
                    <mxGeometry x="410" y="320" width="30" height="30" as="geometry"/>
                </mxCell>
                <mxCell id="44" style="edgeStyle=orthogonalEdgeStyle;html=1;exitX=0.5;exitY=1;exitDx=0;exitDy=0;entryX=0.5;entryY=0;entryDx=0;entryDy=0;" parent="1" source="41" target="34" edge="1">
                    <mxGeometry relative="1" as="geometry"/>
                </mxCell>
                <mxCell id="45" style="edgeStyle=orthogonalEdgeStyle;html=1;exitX=0.5;exitY=1;exitDx=0;exitDy=0;entryX=0.5;entryY=0;entryDx=0;entryDy=0;" parent="1" source="41" target="36" edge="1">
                    <mxGeometry relative="1" as="geometry"/>
                </mxCell>
                <mxCell id="62" style="edgeStyle=orthogonalEdgeStyle;html=1;exitX=0.5;exitY=1;exitDx=0;exitDy=0;entryX=0.5;entryY=0;entryDx=0;entryDy=0;" parent="1" source="41" target="35" edge="1">
                    <mxGeometry relative="1" as="geometry"/>
                </mxCell>
                <mxCell id="41" value="3-5" style="text;strokeColor=none;align=center;fillColor=none;html=1;verticalAlign=middle;whiteSpace=wrap;rounded=0;" parent="1" vertex="1">
                    <mxGeometry x="220" y="230" width="60" height="30" as="geometry"/>
                </mxCell>
                <mxCell id="46" value="Linked List" style="text;strokeColor=none;align=center;fillColor=none;html=1;verticalAlign=middle;whiteSpace=wrap;rounded=0;" parent="1" vertex="1">
                    <mxGeometry x="90" y="420" width="60" height="30" as="geometry"/>
                </mxCell>
                <mxCell id="57" style="edgeStyle=orthogonalEdgeStyle;html=1;exitX=1;exitY=0.5;exitDx=0;exitDy=0;entryX=0;entryY=0.5;entryDx=0;entryDy=0;" parent="1" source="47" target="48" edge="1">
                    <mxGeometry relative="1" as="geometry"/>
                </mxCell>
                <mxCell id="47" value="" style="whiteSpace=wrap;html=1;flipH=1;" parent="1" vertex="1">
                    <mxGeometry x="110" y="480" width="30" height="30" as="geometry"/>
                </mxCell>
                <mxCell id="58" style="edgeStyle=orthogonalEdgeStyle;html=1;exitX=1;exitY=0.5;exitDx=0;exitDy=0;entryX=0;entryY=0.5;entryDx=0;entryDy=0;" parent="1" source="48" target="49" edge="1">
                    <mxGeometry relative="1" as="geometry"/>
                </mxCell>
                <mxCell id="48" value="" style="whiteSpace=wrap;html=1;flipH=1;" parent="1" vertex="1">
                    <mxGeometry x="160" y="480" width="30" height="30" as="geometry"/>
                </mxCell>
                <mxCell id="59" style="edgeStyle=orthogonalEdgeStyle;html=1;exitX=1;exitY=0.5;exitDx=0;exitDy=0;entryX=0;entryY=0.5;entryDx=0;entryDy=0;" parent="1" source="49" target="50" edge="1">
                    <mxGeometry relative="1" as="geometry"/>
                </mxCell>
                <mxCell id="49" value="" style="whiteSpace=wrap;html=1;flipH=1;fillColor=#60a917;fontColor=#ffffff;strokeColor=#2D7600;" parent="1" vertex="1">
                    <mxGeometry x="210" y="480" width="30" height="30" as="geometry"/>
                </mxCell>
                <mxCell id="63" style="edgeStyle=orthogonalEdgeStyle;html=1;exitX=1;exitY=0.5;exitDx=0;exitDy=0;entryX=0;entryY=0.5;entryDx=0;entryDy=0;" parent="1" source="50" target="51" edge="1">
                    <mxGeometry relative="1" as="geometry"/>
                </mxCell>
                <mxCell id="50" value="" style="whiteSpace=wrap;html=1;flipH=1;fillColor=#60a917;fontColor=#ffffff;strokeColor=#2D7600;" parent="1" vertex="1">
                    <mxGeometry x="260" y="480" width="30" height="30" as="geometry"/>
                </mxCell>
                <mxCell id="64" style="edgeStyle=orthogonalEdgeStyle;html=1;exitX=1;exitY=0.5;exitDx=0;exitDy=0;entryX=0;entryY=0.5;entryDx=0;entryDy=0;" parent="1" source="51" target="52" edge="1">
                    <mxGeometry relative="1" as="geometry"/>
                </mxCell>
                <mxCell id="51" value="" style="whiteSpace=wrap;html=1;flipH=1;fillColor=#60a917;fontColor=#ffffff;strokeColor=#2D7600;" parent="1" vertex="1">
                    <mxGeometry x="310" y="480" width="30" height="30" as="geometry"/>
                </mxCell>
                <mxCell id="65" style="edgeStyle=orthogonalEdgeStyle;html=1;exitX=1;exitY=0.5;exitDx=0;exitDy=0;" parent="1" source="52" target="53" edge="1">
                    <mxGeometry relative="1" as="geometry"/>
                </mxCell>
                <mxCell id="52" value="" style="whiteSpace=wrap;html=1;flipH=1;" parent="1" vertex="1">
                    <mxGeometry x="360" y="480" width="30" height="30" as="geometry"/>
                </mxCell>
                <mxCell id="53" value="" style="whiteSpace=wrap;html=1;flipH=1;" parent="1" vertex="1">
                    <mxGeometry x="410" y="480" width="30" height="30" as="geometry"/>
                </mxCell>
                <mxCell id="56" value="3-5" style="text;strokeColor=none;align=center;fillColor=none;html=1;verticalAlign=middle;whiteSpace=wrap;rounded=0;" parent="1" vertex="1">
                    <mxGeometry x="220" y="390" width="60" height="30" as="geometry"/>
                </mxCell>
                <mxCell id="60" value="" style="whiteSpace=wrap;html=1;flipH=1;" parent="1" vertex="1">
                    <mxGeometry x="370" y="320" width="30" height="30" as="geometry"/>
                </mxCell>
                <mxCell id="67" value="1000" style="whiteSpace=wrap;html=1;fillColor=#008a00;fontColor=#ffffff;strokeColor=#005700;" vertex="1" parent="1">
                    <mxGeometry x="190" y="640" width="120" height="60" as="geometry"/>
                </mxCell>
                <mxCell id="68" value="2000" style="whiteSpace=wrap;html=1;fillColor=#008a00;fontColor=#ffffff;strokeColor=#005700;" vertex="1" parent="1">
                    <mxGeometry x="190" y="710" width="120" height="60" as="geometry"/>
                </mxCell>
                <mxCell id="69" value="4000" style="whiteSpace=wrap;html=1;fillColor=#008a00;fontColor=#ffffff;strokeColor=#005700;" vertex="1" parent="1">
                    <mxGeometry x="190" y="850" width="120" height="60" as="geometry"/>
                </mxCell>
                <mxCell id="70" value="3000" style="whiteSpace=wrap;html=1;fillColor=#008a00;fontColor=#ffffff;strokeColor=#005700;" vertex="1" parent="1">
                    <mxGeometry x="190" y="780" width="120" height="60" as="geometry"/>
                </mxCell>
                <mxCell id="71" value="User 1" style="text;strokeColor=none;align=center;fillColor=none;html=1;verticalAlign=middle;whiteSpace=wrap;rounded=0;" vertex="1" parent="1">
                    <mxGeometry x="230" y="570" width="60" height="30" as="geometry"/>
                </mxCell>
                <mxCell id="72" value="User 2" style="text;strokeColor=none;align=center;fillColor=none;html=1;verticalAlign=middle;whiteSpace=wrap;rounded=0;" vertex="1" parent="1">
                    <mxGeometry x="410" y="570" width="60" height="30" as="geometry"/>
                </mxCell>
                <mxCell id="73" value="1000" style="whiteSpace=wrap;html=1;fillColor=#008a00;fontColor=#ffffff;strokeColor=#005700;" vertex="1" parent="1">
                    <mxGeometry x="390" y="640" width="120" height="60" as="geometry"/>
                </mxCell>
                <mxCell id="74" value="2000" style="whiteSpace=wrap;html=1;fillColor=#008a00;fontColor=#ffffff;strokeColor=#005700;" vertex="1" parent="1">
                    <mxGeometry x="390" y="710" width="120" height="60" as="geometry"/>
                </mxCell>
                <mxCell id="75" value="4000" style="whiteSpace=wrap;html=1;fillColor=#008a00;fontColor=#ffffff;strokeColor=#005700;" vertex="1" parent="1">
                    <mxGeometry x="390" y="850" width="120" height="60" as="geometry"/>
                </mxCell>
                <mxCell id="76" value="3000" style="whiteSpace=wrap;html=1;fillColor=#008a00;fontColor=#ffffff;strokeColor=#005700;" vertex="1" parent="1">
                    <mxGeometry x="390" y="780" width="120" height="60" as="geometry"/>
                </mxCell>
                <mxCell id="77" value="Load user&amp;nbsp;" style="text;strokeColor=none;align=center;fillColor=none;html=1;verticalAlign=middle;whiteSpace=wrap;rounded=0;" vertex="1" parent="1">
                    <mxGeometry x="40" y="600" width="110" height="30" as="geometry"/>
                </mxCell>
                <mxCell id="78" value="Stage 1" style="text;strokeColor=none;align=center;fillColor=none;html=1;verticalAlign=middle;whiteSpace=wrap;rounded=0;" vertex="1" parent="1">
                    <mxGeometry x="50" y="750" width="60" height="30" as="geometry"/>
                </mxCell>
                <mxCell id="83" value="Stage 2" style="text;strokeColor=none;align=center;fillColor=none;html=1;verticalAlign=middle;whiteSpace=wrap;rounded=0;" vertex="1" parent="1">
                    <mxGeometry x="50" y="1060" width="60" height="30" as="geometry"/>
                </mxCell>
                <mxCell id="97" value="1000" style="whiteSpace=wrap;html=1;fillColor=#008a00;fontColor=#ffffff;strokeColor=#005700;" vertex="1" parent="1">
                    <mxGeometry x="190" y="970" width="120" height="60" as="geometry"/>
                </mxCell>
                <mxCell id="98" value="1500" style="whiteSpace=wrap;html=1;fillColor=#a20025;fontColor=#ffffff;strokeColor=#6F0000;" vertex="1" parent="1">
                    <mxGeometry x="190" y="1040" width="120" height="60" as="geometry"/>
                </mxCell>
                <mxCell id="99" value="4000" style="whiteSpace=wrap;html=1;fillColor=#008a00;fontColor=#ffffff;strokeColor=#005700;" vertex="1" parent="1">
                    <mxGeometry x="190" y="1180" width="120" height="60" as="geometry"/>
                </mxCell>
                <mxCell id="100" value="3000" style="whiteSpace=wrap;html=1;fillColor=#008a00;fontColor=#ffffff;strokeColor=#005700;" vertex="1" parent="1">
                    <mxGeometry x="190" y="1110" width="120" height="60" as="geometry"/>
                </mxCell>
                <mxCell id="101" value="1000" style="whiteSpace=wrap;html=1;fillColor=#008a00;fontColor=#ffffff;strokeColor=#005700;" vertex="1" parent="1">
                    <mxGeometry x="390" y="970" width="120" height="60" as="geometry"/>
                </mxCell>
                <mxCell id="102" value="2000" style="whiteSpace=wrap;html=1;fillColor=#008a00;fontColor=#ffffff;strokeColor=#005700;" vertex="1" parent="1">
                    <mxGeometry x="390" y="1040" width="120" height="60" as="geometry"/>
                </mxCell>
                <mxCell id="103" value="4000" style="whiteSpace=wrap;html=1;fillColor=#008a00;fontColor=#ffffff;strokeColor=#005700;" vertex="1" parent="1">
                    <mxGeometry x="390" y="1180" width="120" height="60" as="geometry"/>
                </mxCell>
                <mxCell id="104" value="3000" style="whiteSpace=wrap;html=1;fillColor=#008a00;fontColor=#ffffff;strokeColor=#005700;" vertex="1" parent="1">
                    <mxGeometry x="390" y="1110" width="120" height="60" as="geometry"/>
                </mxCell>
            </root>
        </mxGraphModel>
    </diagram>
</mxfile>